<svg xmlns="http://www.w3.org/2000/svg" xmlns:xlink="http://www.w3.org/1999/xlink" width="450" zoomAndPan="magnify" viewBox="0 0 337.5 112.499997" height="150" preserveAspectRatio="xMidYMid meet" version="1.0"><defs><g/></defs><g fill="#8c52ff" fill-opacity="1"><g transform="translate(17.589735, 83.522165)"><g><path d="M 0.953125 -1.4375 L 8.59375 -4.296875 L 20.4375 -19.484375 L 4.296875 -44.90625 L -0.484375 -46.328125 L -0.484375 -47.765625 L 12.421875 -47.765625 C 15.472656 -47.765625 17.953125 -47.078125 19.859375 -45.703125 C 21.773438 -44.335938 23.59375 -42.316406 25.3125 -39.640625 L 30.1875 -31.90625 L 39.171875 -43.46875 L 32 -46.328125 L 32 -47.765625 L 50.15625 -47.765625 L 50.15625 -46.328125 L 42.515625 -43.46875 L 31.625 -29.609375 L 48.71875 -2.859375 L 53.5 -1.4375 L 53.5 0 L 40.59375 0 C 37.539062 0 35.054688 -0.664062 33.140625 -2 C 31.234375 -3.34375 29.421875 -5.382812 27.703125 -8.125 L 21.96875 -17.09375 L 11.9375 -4.296875 L 19.109375 -1.4375 L 19.109375 0 L 0.953125 0 Z M 0.953125 -1.4375 "/></g></g></g><g fill="#8c52ff" fill-opacity="1"><g transform="translate(70.604122, 83.522165)"><g><path d="M 3.828125 -1.4375 L 9.546875 -2.859375 L 9.546875 -44.90625 L 3.828125 -46.328125 L 3.828125 -47.765625 L 16.234375 -47.765625 C 21.972656 -47.765625 24.84375 -44.898438 24.84375 -39.171875 L 24.84375 -2.859375 L 30.5625 -1.4375 L 30.5625 0 L 3.828125 0 Z M 16.25 -53.5 C 14.332031 -53.5 12.738281 -54.132812 11.46875 -55.40625 C 10.195312 -56.675781 9.5625 -58.269531 9.5625 -60.1875 C 9.5625 -62.09375 10.195312 -63.679688 11.46875 -64.953125 C 12.738281 -66.234375 14.332031 -66.875 16.25 -66.875 C 18.15625 -66.875 19.742188 -66.234375 21.015625 -64.953125 C 22.296875 -63.679688 22.9375 -62.09375 22.9375 -60.1875 C 22.9375 -58.269531 22.296875 -56.675781 21.015625 -55.40625 C 19.742188 -54.132812 18.15625 -53.5 16.25 -53.5 Z M 16.25 -53.5 "/></g></g></g><g fill="#8c52ff" fill-opacity="1"><g transform="translate(103.081404, 83.522165)"><g><path d="M 3.828125 -1.4375 L 9.546875 -2.859375 L 9.546875 -44.90625 L 3.828125 -46.328125 L 3.828125 -47.765625 L 12.421875 -47.765625 C 16.179688 -47.765625 19.140625 -46.554688 21.296875 -44.140625 C 22.128906 -43.179688 22.832031 -42 23.40625 -40.59375 C 24.363281 -42.382812 25.382812 -43.820312 26.46875 -44.90625 C 29.332031 -47.769531 32.609375 -49.203125 36.296875 -49.203125 C 39.992188 -49.203125 43.242188 -48.390625 46.046875 -46.765625 C 48.847656 -45.140625 51.015625 -42.925781 52.546875 -40.125 C 53.492188 -41.96875 54.507812 -43.460938 55.59375 -44.609375 C 58.53125 -47.671875 61.8125 -49.203125 65.4375 -49.203125 C 68.8125 -49.203125 71.851562 -48.5 74.5625 -47.09375 C 77.269531 -45.695312 79.367188 -43.785156 80.859375 -41.359375 C 82.359375 -38.941406 83.109375 -36.300781 83.109375 -33.4375 L 83.109375 -2.859375 L 88.84375 -1.4375 L 88.84375 0 L 76.421875 0 C 70.691406 0 67.828125 -2.863281 67.828125 -8.59375 L 67.828125 -33.4375 C 67.828125 -37.570312 67.1875 -40.675781 65.90625 -42.75 C 64.632812 -44.820312 63.207031 -45.859375 61.625 -45.859375 C 59.769531 -45.859375 57.890625 -44.582031 55.984375 -42.03125 C 55.210938 -40.820312 54.539062 -39.550781 53.96875 -38.21875 L 53.96875 -2.859375 L 59.703125 -1.4375 L 59.703125 0 L 32.953125 0 L 32.953125 -1.4375 L 38.6875 -2.859375 L 38.6875 -33.4375 C 38.6875 -37.570312 38.050781 -40.675781 36.78125 -42.75 C 35.507812 -44.820312 34.078125 -45.859375 32.484375 -45.859375 C 30.628906 -45.859375 28.75 -44.582031 26.84375 -42.03125 C 26.082031 -40.820312 25.414062 -39.550781 24.84375 -38.21875 L 24.84375 -2.859375 L 30.5625 -1.4375 L 30.5625 0 L 3.828125 0 Z M 3.828125 -1.4375 "/></g></g></g><g fill="#8c52ff" fill-opacity="1"><g transform="translate(193.826738, 83.522165)"><g><path d="M 35.34375 1.4375 C 31.082031 1.4375 27.515625 0.00390625 24.640625 -2.859375 C 23.429688 -4.140625 22.382812 -5.578125 21.5 -7.171875 C 21.050781 -5.765625 20.285156 -4.488281 19.203125 -3.34375 C 16.785156 -0.789062 13.25 0.484375 8.59375 0.484375 L 7.640625 0.484375 L 7.640625 -64 L 1.90625 -65.4375 L 1.90625 -66.875 L 14.328125 -66.875 C 20.054688 -66.875 22.921875 -64.007812 22.921875 -58.28125 L 22.921875 -45.375 C 23.941406 -46.207031 24.929688 -46.84375 25.890625 -47.28125 C 28.179688 -48.5625 30.851562 -49.203125 33.90625 -49.203125 C 40.34375 -49.203125 45.457031 -47.019531 49.25 -42.65625 C 53.039062 -38.289062 54.9375 -32.03125 54.9375 -23.875 C 54.9375 -18.46875 54.070312 -13.867188 52.34375 -10.078125 C 50.625 -6.285156 48.300781 -3.414062 45.375 -1.46875 C 42.445312 0.46875 39.101562 1.4375 35.34375 1.4375 Z M 31.53125 -1.90625 C 33.5625 -1.90625 35.257812 -3.515625 36.625 -6.734375 C 38 -9.953125 38.6875 -15.664062 38.6875 -23.875 C 38.6875 -32.476562 37.9375 -38.367188 36.4375 -41.546875 C 34.945312 -44.734375 32.832031 -46.328125 30.09375 -46.328125 C 28.4375 -46.328125 26.75 -45.691406 25.03125 -44.421875 C 24.519531 -44.035156 23.816406 -43.398438 22.921875 -42.515625 L 22.921875 -9.546875 C 23.492188 -8.085938 24.195312 -6.816406 25.03125 -5.734375 C 26.9375 -3.179688 29.101562 -1.90625 31.53125 -1.90625 Z M 31.53125 -1.90625 "/></g></g></g><g fill="#8c52ff" fill-opacity="1"><g transform="translate(252.572405, 83.522165)"><g><path d="M 22.453125 1.4375 C 16.785156 1.4375 12.421875 0.226562 9.359375 -2.1875 C 6.304688 -4.613281 4.78125 -7.707031 4.78125 -11.46875 C 4.78125 -13.945312 5.320312 -16.394531 6.40625 -18.8125 C 6.84375 -19.96875 7.414062 -21.019531 8.125 -21.96875 C 10.726562 -22.601562 13.5625 -23.175781 16.625 -23.6875 C 23.5 -24.832031 29.582031 -25.535156 34.875 -25.796875 L 34.875 -28.65625 C 34.875 -35.726562 34.007812 -40.597656 32.28125 -43.265625 C 30.5625 -45.941406 27.921875 -47.28125 24.359375 -47.28125 C 23.023438 -47.28125 21.878906 -47.125 20.921875 -46.8125 L 19.578125 -46.328125 L 19.578125 -32 L 18.34375 -31.71875 C 17.320312 -31.59375 16.460938 -31.53125 15.765625 -31.53125 C 13.597656 -31.53125 11.859375 -32.179688 10.546875 -33.484375 C 9.242188 -34.785156 8.59375 -36.519531 8.59375 -38.6875 C 8.59375 -41.613281 10.070312 -44.097656 13.03125 -46.140625 C 16 -48.179688 20.410156 -49.203125 26.265625 -49.203125 C 31.234375 -49.203125 35.515625 -48.320312 39.109375 -46.5625 C 42.710938 -44.8125 45.453125 -42.390625 47.328125 -39.296875 C 49.210938 -36.210938 50.15625 -32.664062 50.15625 -28.65625 L 50.15625 -2.859375 L 55.890625 -1.4375 L 55.890625 0 L 47.28125 0 C 43.46875 0 40.507812 -1.175781 38.40625 -3.53125 C 37.507812 -4.488281 36.804688 -5.703125 36.296875 -7.171875 C 35.410156 -5.578125 34.363281 -4.140625 33.15625 -2.859375 C 30.28125 0.00390625 26.710938 1.4375 22.453125 1.4375 Z M 26.265625 -1.90625 C 28.628906 -1.90625 30.765625 -3.179688 32.671875 -5.734375 C 33.367188 -6.691406 34.101562 -7.960938 34.875 -9.546875 L 34.875 -23.40625 C 31.9375 -23.40625 29.132812 -23.242188 26.46875 -22.921875 C 24.488281 -22.671875 23.148438 -22.515625 22.453125 -22.453125 C 22.128906 -21.753906 21.8125 -20.796875 21.5 -19.578125 C 20.863281 -17.160156 20.546875 -14.773438 20.546875 -12.421875 C 20.546875 -8.847656 21.082031 -6.203125 22.15625 -4.484375 C 23.238281 -2.765625 24.609375 -1.90625 26.265625 -1.90625 Z M 26.265625 -1.90625 "/></g></g></g><g fill="#8c52ff" fill-opacity="1"><g transform="translate(310.362872, 83.522165)"><g><path d="M 11.46875 0.953125 C 9.550781 0.953125 7.875 0.238281 6.4375 -1.1875 C 5.007812 -2.625 4.296875 -4.296875 4.296875 -6.203125 C 4.296875 -8.117188 5.007812 -9.789062 6.4375 -11.21875 C 7.875 -12.65625 9.550781 -13.375 11.46875 -13.375 C 13.375 -13.375 15.039062 -12.65625 16.46875 -11.21875 C 17.90625 -9.789062 18.625 -8.117188 18.625 -6.203125 C 18.625 -4.296875 17.90625 -2.625 16.46875 -1.1875 C 15.039062 0.238281 13.375 0.953125 11.46875 0.953125 Z M 11.46875 0.953125 "/></g></g></g></svg>